<svg id="Capa_1" enable-background="new 0 0 512 512" height="512" viewBox="0 0 512 512" width="512" xmlns="http://www.w3.org/2000/svg"><path d="m411 162.497h-155v80h155c22.092 0 40-17.909 40-40s-17.909-40-40-40z" fill="#ffa786"/><path d="m101 162.497c-22.091 0-40 17.909-40 40s17.909 40 40 40h155v-80z" fill="#ffc38f"/><path d="m257.62 7.508v374.98c84.86-.87 153.38-69.93 153.38-154.99v-65c0-85.061-68.52-154.121-153.38-154.99z" fill="#ffa786"/><path d="m257.62 7.508c-.54-.01-1.08-.01-1.62-.01-85.6 0-155 69.4-155 155v65c0 85.6 69.4 155 155 155 .54 0 1.08 0 1.62-.01 68.29-1.08 123.38-70.06 123.38-154.99v-65c0-84.93-55.09-153.91-123.38-154.99z" fill="#ffc38f"/><circle cx="256" cy="162.497" fill="#fff7df" r="125"/><path d="m287.94 102.199c-2.649 0-5.24.244-7.762.686l-24.178 139.612 63.602-63.719c8.103-8.118 13.115-19.333 13.115-31.72-.001-24.775-20.048-44.859-44.777-44.859z" fill="#fa4087"/><path d="m302.716 147.058c0-22.12-9.734-40.487-22.537-44.173-9.389 1.647-17.775 6.214-24.179 12.746-8.124-8.287-19.43-13.432-31.94-13.432-24.729 0-44.776 20.084-44.776 44.859 0 12.387 5.012 23.602 13.115 31.72l63.601 63.719 38.73-63.719c4.934-8.118 7.986-19.333 7.986-31.72z" fill="#fa71a3"/><path d="m444.5 412.497h-30l60 92h30v-32c0-33-27-60-60-60z" fill="#be437c"/><path d="m474.5 472.497v32h-467v-32c0-33 27-60 60-60h30l158.5 36 158.5-36c33 0 60 27 60 60z" fill="#fa4087"/><path d="m183.5 458.497h-40c-25.4 0-46-20.59-46-46h40z" fill="#fff7df"/><path d="m374.5 412.497h40c0 25.41-20.59 46-46 46h-40z" fill="#fff7df"/><path d="m344.5 412.497h30c0 25.41-20.59 46-46 46h-30z" fill="#ffa786"/><path d="m137.5 412.497h207c0 25.41-20.59 46-46 46h-115c-25.4 0-46-20.589-46-46z" fill="#ffc38f"/><path d="m95.01 249.609c10.82 79.181 78.886 140.391 160.99 140.391s150.17-61.21 160.99-140.391c23.372-2.956 41.51-22.948 41.51-47.109 0-23.695-17.44-43.39-40.158-46.93-3.644-86.4-75.062-155.57-162.342-155.57s-158.698 69.17-162.342 155.57c-22.718 3.54-40.158 23.235-40.158 46.93 0 24.161 18.138 44.153 41.51 47.109zm348.49-47.109c0 15.392-10.758 28.309-25.147 31.651.089-2.207.147-4.422.147-6.651v-56.617c14.315 3.396 25 16.278 25 31.617zm-187.5-187.5c81.332 0 147.5 66.168 147.5 147.5v65c0 81.332-66.168 147.5-147.5 147.5s-147.5-66.168-147.5-147.5v-65c0-81.332 66.168-147.5 147.5-147.5zm-162.5 155.883v56.617c0 2.229.058 4.444.147 6.651-14.389-3.342-25.147-16.259-25.147-31.651 0-15.339 10.685-28.221 25-31.617z"/><path d="m250.692 247.799c1.407 1.409 3.316 2.201 5.308 2.201 1.991 0 3.901-.792 5.309-2.201l63.602-63.72c9.87-9.889 15.306-23.036 15.306-37.019 0-28.87-23.45-52.358-52.275-52.358-11.724 0-22.835 3.83-31.94 10.905-9.106-7.075-20.217-10.905-31.94-10.905-28.825 0-52.276 23.488-52.276 52.358 0 13.982 5.436 27.13 15.306 37.02zm-26.632-138.097c10.074 0 19.516 3.972 26.585 11.183 1.411 1.438 3.341 2.249 5.355 2.249s3.945-.811 5.355-2.25c7.069-7.211 16.511-11.182 26.585-11.182 20.554 0 37.275 16.759 37.275 37.358 0 9.981-3.879 19.365-10.923 26.422l-58.292 58.402-58.293-58.4c-7.044-7.058-10.923-16.441-10.923-26.423 0-20.6 16.721-37.359 37.276-37.359z"/><path d="m256 295c73.061 0 132.5-59.439 132.5-132.5s-59.439-132.5-132.5-132.5c-29.976 0-58.255 9.766-81.779 28.242-3.258 2.559-3.824 7.273-1.266 10.531 2.56 3.258 7.273 3.824 10.531 1.266 20.856-16.381 45.931-25.039 72.514-25.039 64.79 0 117.5 52.71 117.5 117.5s-52.71 117.5-117.5 117.5-117.5-52.71-117.5-117.5c0-26.583 8.658-51.658 25.039-72.514 2.558-3.258 1.992-7.973-1.266-10.531-3.257-2.56-7.971-1.992-10.531 1.266-18.476 23.524-28.242 51.803-28.242 81.779 0 73.061 59.439 132.5 132.5 132.5z"/><path d="m444.5 405h-377c-37.22 0-67.5 30.28-67.5 67.5v32c0 4.143 3.358 7.5 7.5 7.5h497c4.143 0 7.5-3.357 7.5-7.5v-32c0-37.22-30.28-67.5-67.5-67.5zm-261 46c-18.663 0-34.261-13.35-37.761-31h220.522c-3.5 17.65-19.099 31-37.761 31zm-37.091 0h-2.909c-18.663 0-34.261-13.35-37.761-31h24.797c1.706 12.098 7.471 22.903 15.873 31zm235.055-31h24.797c-3.5 17.65-19.099 31-37.761 31h-2.908c8.401-8.097 14.166-18.902 15.872-31zm115.536 77h-482v-24.5c0-28.948 23.551-52.5 52.5-52.5h23.036c3.659 25.96 26.01 46 52.964 46h225c26.954 0 49.304-20.04 52.964-46h23.036c28.948 0 52.5 23.552 52.5 52.5z"/></svg>