<svg height="512" viewBox="0 0 64 64" width="512" xmlns="http://www.w3.org/2000/svg"><g id="hospital-information-live-covid19-coronavirus"><path d="m26 51h12v6h-12z" fill="#808285"/><path d="m5 9h54a2 2 0 0 1 2 2v34a0 0 0 0 1 0 0h-58a0 0 0 0 1 0 0v-34a2 2 0 0 1 2-2z" fill="#414042"/><path d="m6 12h52v30h-52z" fill="#ffc477"/><path d="m54 14a28 28 0 0 1 -28 28h32v-28z" fill="#ffb655"/><path d="m26 51h12v3h-12z" fill="#6d6e71"/><path d="m3 49a2.006 2.006 0 0 0 2 2h54a2.006 2.006 0 0 0 2-2v-4h-58z" fill="#004fac"/><path d="m29 42 1-10a1 1 0 0 1 -1-1v-2h-2a5.875 5.875 0 0 0 -1.93.32l2.93 12.68z" fill="#d1e7f8"/><path d="m25.07 29.32a6 6 0 0 0 -4.07 5.68v7h7z" fill="#00479b"/><path d="m32 32 1 10h1l2.93-12.68a5.875 5.875 0 0 0 -1.93-.32h-2v2a1 1 0 0 1 -1 1z" fill="#d1e7f8"/><path d="m41 42v-7a6 6 0 0 0 -4.07-5.68l-2.93 12.68z" fill="#00479b"/><path d="m21 57a2 2 0 0 0 -2 2v2h26v-2a2 2 0 0 0 -2-2z" fill="#414042"/><path d="m61 14a10.992 10.992 0 0 1 -8.24 10.65h-.01l-7.75 6.35 1.63-6.52a11 11 0 1 1 14.37-10.48z" fill="#ffcd00"/><path d="m50 3a11.07 11.07 0 0 0 -2 .19 11 11 0 0 1 .76 21.46h-.01l-2.72 2.228-1.03 4.122 7.75-6.35h.01a11 11 0 0 0 -2.76-21.65z" fill="#ebbf00"/><path d="m30 32h2a1 1 0 0 0 1-1v-2h-4v2a1 1 0 0 0 1 1z" fill="#ab2300"/><path d="m30 32-1 10h4l-1-10z" fill="#d80027"/><path d="m36 19v-1a2 2 0 0 0 -2-2h-10v1a3 3 0 0 0 3 3h8a1 1 0 0 0 1-1z" fill="#58595b"/><path d="m31 26a4 4 0 0 0 4-4v-2h-8v2a4 4 0 0 0 4 4z" fill="#ffa791"/><path d="m10 17v4h6v-1.948-2.052z" fill="#d80027"/><path d="m20 16-4 3.052 4 2.948z" fill="#d80027"/><path d="m29 25.445v3.555h4v-3.555a3.881 3.881 0 0 1 -4 0z" fill="#ffa791"/><path d="m31 26a3.955 3.955 0 0 1 -2-.555v1a3.881 3.881 0 0 0 4 0v-1a3.955 3.955 0 0 1 -2 .555z" fill="#ff9478"/><circle cx="50" cy="14" fill="#d80027" r="3"/><g fill="#231f20"><path d="m33 47h-2a1 1 0 0 0 0 2h2a1 1 0 0 0 0-2z"/><path d="m43 16a1.993 1.993 0 0 0 1.722-1h1.42a3.915 3.915 0 0 0 .425 1.019l-1.006 1.006a2 2 0 1 0 1.413 1.415l1.007-1.007a3.915 3.915 0 0 0 1.019.425v1.42a2 2 0 1 0 2 0v-1.42a3.915 3.915 0 0 0 1.019-.425l1.006 1.007a2 2 0 0 0 .509 1.923 2 2 0 1 0 .9-3.339l-1.006-1.006a3.915 3.915 0 0 0 .43-1.018h1.42a2 2 0 1 0 0-2h-1.42a3.915 3.915 0 0 0 -.425-1.019l1.006-1.006a2.015 2.015 0 0 0 .51.074 2.006 2.006 0 1 0 -1.923-1.489l-1.007 1.007a3.915 3.915 0 0 0 -1.019-.425v-1.42a2 2 0 1 0 -2 0v1.42a3.915 3.915 0 0 0 -1.019.425l-1.006-1.007a2 2 0 0 0 -.509-1.923 2 2 0 1 0 -1.415 3.413 2.022 2.022 0 0 0 .511-.074l1.006 1.006a3.915 3.915 0 0 0 -.426 1.018h-1.42a2 2 0 1 0 -1.722 3zm7-4a2 2 0 1 1 -2 2 2 2 0 0 1 2-2z"/><path d="m50 2a12.006 12.006 0 0 0 -10.38 6h-34.62a3.009 3.009 0 0 0 -3 3v38a3.009 3.009 0 0 0 3 3h20v4h-4a3.009 3.009 0 0 0 -3 3v2a1 1 0 0 0 1 1h26a1 1 0 0 0 1-1v-2a3.009 3.009 0 0 0 -3-3h-4v-4h20a3.009 3.009 0 0 0 3-3v-35a12.01 12.01 0 0 0 -12-12zm-5.54 29.84a.984.984 0 0 0 1.17-.07l7.58-6.21a11.962 11.962 0 0 0 3.79-1.81v17.25h-15v-6a7.006 7.006 0 0 0 -4.75-6.63 7.122 7.122 0 0 0 -2.25-.37h-1v-2.03a4.952 4.952 0 0 0 2-3.97v-1.28a2 2 0 0 0 1-1.72v-1a3.009 3.009 0 0 0 -3-3h-10a1 1 0 0 0 -1 1v1a4 4 0 0 0 3 3.86v1.14a4.952 4.952 0 0 0 2 3.97v2.03h-1a6.748 6.748 0 0 0 -2.24.37c-.01 0-.02.01-.03.01a6.979 6.979 0 0 0 -4.73 6.62v6h-13v-28h31.05c-.03.33-.05.66-.05 1a11.967 11.967 0 0 0 7.44 11.11l-1.41 5.65a.984.984 0 0 0 .43 1.08zm-14.46-.84v-1h2v1zm1.9 10h-1.8l.8-8h.2zm-1.9-13v-1.1a5.05 5.05 0 0 0 2 0v1.1zm1-3a3.009 3.009 0 0 1 -3-3v-1h6v1a3.009 3.009 0 0 1 -3 3zm-4.73 5.05a5.706 5.706 0 0 1 .73-.05h1v1a1.974 1.974 0 0 0 .93 1.68l-.62 6.21zm.47 10.95h-4.74v-6a4.987 4.987 0 0 1 2.37-4.25zm.26-22a2.006 2.006 0 0 1 -2-2h9a1 1 0 0 1 1 1v1zm7 12v-1h1a5.706 5.706 0 0 1 .73.05l-2.04 8.83-.62-6.2a1.974 1.974 0 0 0 .93-1.68zm3.63-.25a4.987 4.987 0 0 1 2.37 4.25v6h-4.74zm5.37 27.25a1 1 0 0 1 1 1v1h-24v-1a1 1 0 0 1 1-1zm-16-2v-4h10v4zm33-7a1 1 0 0 1 -1 1h-54a1 1 0 0 1 -1-1v-3h56zm0-5h-56v-33a1 1 0 0 1 1-1h33.7c-.12.33-.22.66-.31 1h-32.39a1 1 0 0 0 -1 1v30a1 1 0 0 0 1 1h52a1 1 0 0 0 1-1v-20.06a11.617 11.617 0 0 0 1-1.31zm-7.43-20.33a1.055 1.055 0 0 0 -.19.05.869.869 0 0 0 -.26.16l-5.42 4.43.9-3.59a.992.992 0 0 0 -.66-1.19 10.006 10.006 0 1 1 5.63.14z"/><path d="m20.443 15.1a1 1 0 0 0 -1.049.1l-2.394 1.831v-.031a1 1 0 0 0 -1-1h-6a1 1 0 0 0 -1 1v4a1 1 0 0 0 1 1h6a1 1 0 0 0 .994-.973l2.413 1.778a1 1 0 0 0 1.593-.805v-6a1 1 0 0 0 -.557-.9zm-5.443 4.9h-4v-2h4zm4 .021-1.333-.983 1.333-1.017z"/></g></g></svg>