<svg id="icon" height="512" viewBox="0 0 128 128" width="512" xmlns="http://www.w3.org/2000/svg"><rect fill="#f6b863" height="78.901" rx="2.824" width="64.189" x="31.905" y="26.099"/><path d="m36.343 30.538h55.314v70.023h-55.314z" fill="#eeefee"/><path d="m64.571 36.675c-.208 0-.421-.008-.638-.025a7.38 7.38 0 0 1 -6.766-3.438h-11.867a.909.909 0 0 1 -.91-.91v-7.121a.909.909 0 0 1 .91-.91h37.4a.909.909 0 0 1 .91.91v7.119a.909.909 0 0 1 -.91.91h-11.867a7.528 7.528 0 0 1 -6.262 3.465zm-.638-1.839a5.839 5.839 0 0 0 5.661-3.036.91.91 0 0 1 .757-.405h11.44v-5.3h-35.582v5.3h11.44a.91.91 0 0 1 .757.405c1.02 1.53 2.558 3.268 5.527 3.036z" fill="#575b6d"/><path d="m78.64 23h-29.28a2.181 2.181 0 0 0 0 4.361h29.28a2.181 2.181 0 0 0 0-4.361z" fill="#414451"/><path d="m43.497 71.938h6.166v9.417h-6.166z" fill="#69b0ee"/><path d="m54.747 66.522h6.166v14.834h-6.166z" fill="#f6c863"/><path d="m65.996 77.105h6.166v4.251h-6.166z" fill="#2cbfae"/><path d="m77.246 63.901h6.166v17.455h-6.166z" fill="#ef5261"/><path d="m41.145 86.679h45.709v2.264h-45.709z" fill="#ccd0d2"/><path d="m41.145 93.641h28.279v2.264h-28.279z" fill="#ccd0d2"/><g fill="#ef5261"><circle cx="64.17" cy="50.941" r="6.559" transform="matrix(.896 -.444 .444 .896 -15.952 33.818)"/><circle cx="52.364" cy="45.456" r="1.424" transform="matrix(.896 -.444 .444 .896 -14.745 28.001)"/><path d="m74.7 44.706a2 2 0 0 1 -.866 2.693 1.933 1.933 0 0 1 -1.62.044 1.217 1.217 0 0 0 -1.016.012 1.192 1.192 0 0 0 -.343.257l-1.529 1.667 1.192 1.214a1.71 1.71 0 0 0 1 .5 1.641 1.641 0 0 0 .931-.14c.033-.017.066-.036.1-.055s.073-.039.109-.057a1.3 1.3 0 1 1 -.287 2.159 1.732 1.732 0 0 0 -.724-.373l-1.759-.417-.735 1.97.3 1.252a2.376 2.376 0 0 0 .661 1.164l.082.081a2.228 2.228 0 0 0 1.1.612 1.614 1.614 0 1 1 -1.916 1.673 2.522 2.522 0 0 0 -.639-1.6l-.14-.151-1.239-1.1-1.838.912-.362 1.323a2.425 2.425 0 0 0 -.079.507v.016a4.78 4.78 0 0 0 .417 1.923v.007a1.3 1.3 0 0 1 -.86 1.846 1.419 1.419 0 0 1 -1.363-.508 1.3 1.3 0 0 1 -.068-1.41 2.446 2.446 0 0 0 .369-1.208l.007-.406a2.231 2.231 0 0 0 -.185-.93l-.513-1.179-2.143-.915-1.427.75a1.676 1.676 0 0 0 -.515.419 1.6 1.6 0 0 0 -.381 1.044 1.806 1.806 0 1 1 -1.763-1.783 1.665 1.665 0 0 0 1.084-.363l.082-.065a1.676 1.676 0 0 0 .464-.581l.544-1.126-.8-3.058-.832-.726a1.105 1.105 0 0 0 -.491-.247 1.15 1.15 0 0 0 -.822.144 1.36 1.36 0 0 1 -.457.163 1.273 1.273 0 0 1 -.914-.207 1.3 1.3 0 1 1 1.684-1.953 1.037 1.037 0 0 0 .6.313l.222.038a1.151 1.151 0 0 0 .551-.027l.933-.289.849-1.687-.413-1.165a1.293 1.293 0 0 0 -.267-.443l-.219-.238a1.338 1.338 0 0 0 -.838-.412 1.763 1.763 0 0 1 -1.394-.955 1.94 1.94 0 0 1 3.476-1.716 1.713 1.713 0 0 1 .1 1.26 1.31 1.31 0 0 0 .163 1.115 1.293 1.293 0 0 0 .418.39l1.243.725 2.78-.587.424-.5a4.8 4.8 0 0 0 .862-1.5.954.954 0 0 0 -.046-.742 1.3 1.3 0 1 1 1.965.447.908.908 0 0 0 -.316.438 4.824 4.824 0 0 0 -.172 2.187l.083.549.693.922 1.556.021a1.151 1.151 0 0 0 .656-.191l.341-.22a1.189 1.189 0 0 0 .516-.893 1.952 1.952 0 0 1 1.071-1.565 2 2 0 0 1 2.663.931z"/><circle cx="60.087" cy="61.867" r=".945" transform="matrix(.896 -.444 .444 .896 -21.232 33.141)"/><circle cx="62.813" cy="40.274" r=".945" transform="matrix(.896 -.444 .444 .896 -11.354 32.103)"/><circle cx="75.706" cy="55.799" r="1.354" transform="matrix(.896 -.444 .444 .896 -16.909 39.449)"/></g><circle cx="60.671" cy="50.519" fill="#da364c" r="1.276" transform="matrix(.896 -.444 .444 .896 -16.129 32.219)"/><circle cx="66.894" cy="48.856" fill="#da364c" r=".991" transform="matrix(.896 -.444 .444 .896 -14.742 34.811)"/><circle cx="66.924" cy="53.805" fill="#da364c" r=".714" transform="matrix(.896 -.444 .444 .896 -16.938 35.339)"/><circle cx="63.303" cy="47.586" fill="#da364c" r=".714" transform="matrix(.896 -.444 .444 .896 -14.552 33.083)"/><circle cx="63.39" cy="52.624" fill="#da364c" r=".828" transform="matrix(.896 -.444 .444 .896 -16.781 33.646)"/></svg>